# xmcd
#
# Track frame offsets:
#	150
#	17100
#	30587
#	42682
#	55812
#	67575
#	82150
#	94895
#	109117
#	121962
#	136400
#	149925
#	162025
#	174212
#	188220
#	201530
#	213567
#	225850
#
# Disc length: 3158
#
# Revision: 1
# Processed by: cddbd v1.5.1PL0 Copyright (c) Steve Scherf et al.
# Submitted via: CDex 1.50beta9
# Normalized: r0:TDELIM( - )
#
DISCID=020c5412
DTITLE=Boogie Woogie Vocalists - Boogie Woogie
DYEAR=1900
DGENRE=Blues
TTITLE0=Big Joe Turner - Roll 'em Pete
TTITLE1=Memphis Slim - Pinetop's Blues
TTITLE2=Joe Turner with Pete Johnson - Baby, won't you marry me
TTITLE3=Jimmy Rushing - Boogie Woogie
TTITLE4=Joe Turner with Pete Johnson - Wine-O-Baby Boogie
TTITLE5=Anita O' Day and Roy Eldridge - Thanks for the Boogie Woogie
TTITLE6=The Andrews Sisters - In the Mood
TTITLE7=Irene Daye with Gene Krupa - Drum Boogie
TTITLE8=The Andrews Sisters - Beat me Daddy, Eight to the Bar
TTITLE9=Anita O' Day with Gene Krupa - Boogie Blues
TTITLE10=Ella Fitzgerald with Ink Spots - Cow Cow Boogie
TTITLE11=Helen Humes with Buck Clayton - Be Ba Be Le Ba Boogie
TTITLE12=Louis Jordan and his Tympany Five - Choo Choo Ch'Boogie
TTITLE13=Ray McKinley and Don Raye - Down the Road Apiece
TTITLE14=Joe Turner with Pete Johnson - Baby, Look at You
TTITLE15=Big Joe Turner - Noogie Woogie Country Girl
TTITLE16=Walter Brown with Jay McShann - Hootie's Ignorant Oil
TTITLE17=Roosevelt Sykes - Walking the Boogie
EXTD=
EXTT0=
EXTT1=
EXTT2=
EXTT3=
EXTT4=
EXTT5=
EXTT6=
EXTT7=
EXTT8=
EXTT9=
EXTT10=
EXTT11=
EXTT12=
EXTT13=
EXTT14=
EXTT15=
EXTT16=
EXTT17=
PLAYORDER=
